<svg width="19" height="20" viewBox="0 0 19 20" fill="none" xmlns="http://www.w3.org/2000/svg">
<path d="M6.5 14.5C5.8 14.5 5.20833 14.2583 4.725 13.775C4.24167 13.2917 4 12.7 4 12C4 11.3 4.24167 10.7083 4.725 10.225C5.20833 9.74167 5.8 9.5 6.5 9.5C7.2 9.5 7.79167 9.74167 8.275 10.225C8.75833 10.7083 9 11.3 9 12C9 12.7 8.75833 13.2917 8.275 13.775C7.79167 14.2583 7.2 14.5 6.5 14.5ZM2.5 20C1.95 20 1.47917 19.8042 1.0875 19.4125C0.695833 19.0208 0.5 18.55 0.5 18V4C0.5 3.45 0.695833 2.97917 1.0875 2.5875C1.47917 2.19583 1.95 2 2.5 2H3.5V0H5.5V2H13.5V0H15.5V2H16.5C17.05 2 17.5208 2.19583 17.9125 2.5875C18.3042 2.97917 18.5 3.45 18.5 4V18C18.5 18.55 18.3042 19.0208 17.9125 19.4125C17.5208 19.8042 17.05 20 16.5 20H2.5ZM2.5 18H16.5V8H2.5V18ZM2.5 6H16.5V4H2.5V6Z" fill="black"/>
</svg>
