<svg width="56" height="56" viewBox="0 0 56 56" fill="none" xmlns="http://www.w3.org/2000/svg">
<g filter="url(#filter0_d_55_153)">
<rect width="54" height="54" rx="27" fill="#7FE0A6" shape-rendering="crispEdges"/>
<rect x="1" y="1" width="52" height="52" rx="26" stroke="black" stroke-width="2" shape-rendering="crispEdges"/>
<mask id="mask0_55_153" style="mask-type:alpha" maskUnits="userSpaceOnUse" x="15" y="15" width="24" height="24">
<rect x="15" y="15" width="24" height="24" fill="#D9D9D9"/>
</mask>
<g mask="url(#mask0_55_153)">
<path d="M34.95 36C32.8667 36 30.8083 35.5458 28.775 34.6375C26.7417 33.7292 24.8917 32.4417 23.225 30.775C21.5583 29.1083 20.2708 27.2583 19.3625 25.225C18.4542 23.1917 18 21.1333 18 19.05C18 18.75 18.1 18.5 18.3 18.3C18.5 18.1 18.75 18 19.05 18H23.1C23.3333 18 23.5417 18.0792 23.725 18.2375C23.9083 18.3958 24.0167 18.5833 24.05 18.8L24.7 22.3C24.7333 22.5667 24.725 22.7917 24.675 22.975C24.625 23.1583 24.5333 23.3167 24.4 23.45L21.975 25.9C22.3083 26.5167 22.7042 27.1125 23.1625 27.6875C23.6208 28.2625 24.125 28.8167 24.675 29.35C25.1917 29.8667 25.7333 30.3458 26.3 30.7875C26.8667 31.2292 27.4667 31.6333 28.1 32L30.45 29.65C30.6 29.5 30.7958 29.3875 31.0375 29.3125C31.2792 29.2375 31.5167 29.2167 31.75 29.25L35.2 29.95C35.4333 30.0167 35.625 30.1375 35.775 30.3125C35.925 30.4875 36 30.6833 36 30.9V34.95C36 35.25 35.9 35.5 35.7 35.7C35.5 35.9 35.25 36 34.95 36ZM21.025 24L22.675 22.35L22.25 20H20.025C20.1083 20.6833 20.225 21.3583 20.375 22.025C20.525 22.6917 20.7417 23.35 21.025 24ZM29.975 32.95C30.625 33.2333 31.2875 33.4583 31.9625 33.625C32.6375 33.7917 33.3167 33.9 34 33.95V31.75L31.65 31.275L29.975 32.95Z" fill="#1C1B1F"/>
</g>
</g>
<defs>
<filter id="filter0_d_55_153" x="0" y="0" width="56" height="56" filterUnits="userSpaceOnUse" color-interpolation-filters="sRGB">
<feFlood flood-opacity="0" result="BackgroundImageFix"/>
<feColorMatrix in="SourceAlpha" type="matrix" values="0 0 0 0 0 0 0 0 0 0 0 0 0 0 0 0 0 0 127 0" result="hardAlpha"/>
<feOffset dx="2" dy="2"/>
<feComposite in2="hardAlpha" operator="out"/>
<feColorMatrix type="matrix" values="0 0 0 0 0 0 0 0 0 0 0 0 0 0 0 0 0 0 1 0"/>
<feBlend mode="normal" in2="BackgroundImageFix" result="effect1_dropShadow_55_153"/>
<feBlend mode="normal" in="SourceGraphic" in2="effect1_dropShadow_55_153" result="shape"/>
</filter>
</defs>
</svg>
