<svg width="170" height="133" viewBox="0 0 170 133" fill="none" xmlns="http://www.w3.org/2000/svg">
<path d="M30.2828 68.6696H20.0293V18.4795H45.244V28.733H30.2828V38.4279H45.244V48.6814H30.2828V68.6696Z" fill="black"/>
<path d="M60.2046 58.3763H69.8995V28.733H60.2046V58.3763ZM54.9383 68.6696V63.6427H49.9512V23.4666H54.9383V18.4795H75.1659V23.4666H80.153V63.6427H75.1659V68.6696H54.9383ZM50.2304 18.6391H54.9383V23.4666H50.2304V18.6391ZM75.1659 18.4795L80.153 18.4794V23.4666H75.1659V18.4795ZM75.1659 63.6427H80.153V68.5099H75.1659V63.6427ZM49.9512 63.6427H54.9383V68.6696L49.9512 68.6695V63.6427Z" fill="black"/>
<path d="M110.076 68.6696H84.8613V58.3763H104.81V48.6814H89.8484V43.6943H84.8613V23.4666H89.8484V18.4795H115.063V28.733H95.1148V38.4279H110.076V43.415H115.063V63.6427H110.076V68.6696ZM85.1406 18.6391H89.8484V23.4666H85.1406V18.6391ZM84.8613 43.6943H89.8484V48.6814H84.8613L84.8613 43.6943ZM110.076 38.4279H115.063L115.063 43.415H110.076V38.4279ZM110.076 63.6427H115.063L115.063 68.5101H110.076L110.076 63.6427Z" fill="black"/>
<path d="M144.986 68.6696H119.771V58.3763H139.72V48.6814H124.759V43.6943H119.771V23.4666H124.759V18.4795H149.973V28.733H130.025V38.4279H144.986V43.415H149.973V63.6427H144.986V68.6696ZM120.051 18.6391H124.759V23.4666H120.051V18.6391ZM119.771 43.6943H124.759V48.6814H119.771L119.771 43.6943ZM144.986 38.4279H149.973L149.973 43.415H144.986V38.4279ZM144.986 63.6427H149.973L149.973 68.5101H144.986L144.986 63.6427Z" fill="black"/>
<path d="M23.6314 114.52V110.882H20.0273V78.1892H27.4373V107.069H34.4436V78.1892H41.8536V110.882H38.2496V114.52H23.6314ZM20.0273 110.882H23.6314V114.52H20.0273V110.882ZM38.2496 110.882H41.8536V114.405H38.2496V110.882Z" fill="black"/>
<path d="M52.6658 114.52H45.2559V78.1892H67.0821V114.52H59.6722V85.6115H52.6658V114.52Z" fill="black"/>
<path d="M77.8963 114.52H70.4863V78.1892H77.8963V114.52Z" fill="black"/>
<path d="M95.915 114.52H88.505V85.6115H81.2969V78.1892H103.123V85.6115H95.915V114.52Z" fill="black"/>
<path d="M124.748 114.52H106.525V78.1892H124.748V85.6115H113.935V92.6293H124.748V100.052H113.935V107.069H124.748V114.52Z" fill="black"/>
<path d="M135.558 107.069H142.565V85.6115H135.558V107.069ZM128.148 114.52V78.1892H146.371V81.7993H149.975V110.882H146.371V114.52H128.148Z" fill="black"/>
<path d="M167.66 2.7323H2.33984V130.268H167.66V2.7323Z" stroke="black" stroke-width="3.99999"/>
</svg>
