<svg width="27" height="26" viewBox="0 0 27 26" fill="none" xmlns="http://www.w3.org/2000/svg">
<mask id="mask0_467_599" style="mask-type:alpha" maskUnits="userSpaceOnUse" x="0" y="0" width="27" height="26">
<rect x="0.875" y="0.375" width="25.25" height="25.25" fill="#D9D9D9"/>
</mask>
<g mask="url(#mask0_467_599)">
<path d="M13.4997 13C14.0783 13 14.5737 12.794 14.9857 12.3819C15.3978 11.9698 15.6038 11.4745 15.6038 10.8958C15.6038 10.3172 15.3978 9.82182 14.9857 9.40976C14.5737 8.99769 14.0783 8.79166 13.4997 8.79166C12.921 8.79166 12.4257 8.99769 12.0136 9.40976C11.6015 9.82182 11.3955 10.3172 11.3955 10.8958C11.3955 11.4745 11.6015 11.9698 12.0136 12.3819C12.4257 12.794 12.921 13 13.4997 13ZM13.4997 20.7328C15.6389 18.7689 17.2258 16.9848 18.2604 15.3803C19.2949 13.7759 19.8122 12.3512 19.8122 11.1062C19.8122 9.19495 19.2028 7.62998 17.9842 6.41132C16.7655 5.19265 15.2707 4.58332 13.4997 4.58332C11.7287 4.58332 10.2338 5.19265 9.01517 6.41132C7.79651 7.62998 7.18717 9.19495 7.18717 11.1062C7.18717 12.3512 7.70445 13.7759 8.739 15.3803C9.77355 16.9848 11.3604 18.7689 13.4997 20.7328ZM13.4997 23.5208C10.6766 21.1186 8.56803 18.8873 7.17402 16.8269C5.78001 14.7666 5.08301 12.8597 5.08301 11.1062C5.08301 8.47603 5.92906 6.38063 7.62116 4.82004C9.31326 3.25945 11.2728 2.47916 13.4997 2.47916C15.7266 2.47916 17.6861 3.25945 19.3782 4.82004C21.0703 6.38063 21.9163 8.47603 21.9163 11.1062C21.9163 12.8597 21.2193 14.7666 19.8253 16.8269C18.4313 18.8873 16.3228 21.1186 13.4997 23.5208Z" fill="black"/>
</g>
</svg>
