<svg width="40" height="40" viewBox="0 0 40 40" fill="none" xmlns="http://www.w3.org/2000/svg">
<rect width="40" height="40" rx="20" fill="black"/>
<path d="M28.9399 22C28.6599 23.41 26.4999 24.96 23.9699 25.26C22.6599 25.41 21.3699 25.56 19.9999 25.5C17.7499 25.39 15.9999 24.96 15.9999 24.96V25.58C16.3199 27.8 18.2199 27.93 20.0299 28C21.8499 28.05 23.4699 27.54 23.4699 27.54L23.5499 29.19C23.5499 29.19 22.2699 29.87 19.9999 30C18.7499 30.07 17.1899 29.97 15.3799 29.5C11.4599 28.45 10.7799 24.26 10.6799 20L10.6699 16.57C10.6699 12.23 13.4999 10.96 13.4999 10.96C14.9499 10.3 17.4099 10 19.9699 10H20.0299C22.5899 10 25.0499 10.3 26.4999 10.96C26.4999 10.96 29.3299 12.23 29.3299 16.57C29.3299 16.57 29.3699 19.78 28.9399 22ZM25.9999 16.91C25.9999 15.83 25.6999 15 25.1499 14.35C24.5899 13.72 23.8499 13.39 22.9199 13.39C21.8599 13.39 21.0499 13.8 20.4999 14.62L19.9999 15.5L19.4999 14.62C18.9399 13.8 18.1399 13.39 17.0699 13.39C16.1499 13.39 15.4099 13.72 14.8399 14.35C14.2899 15 13.9999 15.83 13.9999 16.91V22.17H16.0999V17.06C16.0999 16 16.5499 15.44 17.4599 15.44C18.4599 15.44 18.9599 16.09 18.9599 17.37V20.16H21.0299V17.37C21.0299 16.09 21.5299 15.44 22.5399 15.44C23.4399 15.44 23.8899 16 23.8899 17.06V22.17H25.9999V16.91Z" fill="white"/>
</svg>
