<svg width="228" height="57" viewBox="0 0 228 57" fill="none" xmlns="http://www.w3.org/2000/svg">
<g clip-path="url(#clip0_625_155)">
<path d="M208.604 15.9204C197.948 15.9204 189.637 24.1379 189.637 34.7828C189.637 45.348 197.948 53.5654 208.604 53.5654C219.26 53.5654 227.5 45.348 227.5 34.7828C227.5 24.1451 219.26 15.9204 208.604 15.9204ZM208.532 41.0074C205.055 41.0074 202.258 38.2103 202.258 34.7828C202.258 31.2828 205.055 28.4857 208.532 28.4857C212.081 28.4857 214.879 31.2828 214.879 34.7828C214.879 38.2103 212.081 41.0074 208.532 41.0074Z" fill="#FF3D84"/>
<path d="M47.6684 12.5581C44.1918 12.5581 41.3945 9.76099 41.3945 6.33345C41.3945 2.83345 44.1918 0.0363464 47.6684 0.0363464C51.2181 0.0363464 54.0154 2.83345 54.0154 6.33345C54.0154 9.75374 51.2181 12.5581 47.6684 12.5581Z" fill="black"/>
<path d="M23.0101 52.5075V30.8047C23.0101 28.2249 21.2791 25.9641 17.7369 25.9641C14.2749 25.9641 12.0691 28.1524 12.0691 30.964V52.5148H0.5V17.1379H11.1269V21.8988H11.2073C12.6242 18.1524 16.3199 16.0438 22.068 16.0438C29.861 16.0438 34.5792 20.4133 34.5792 27.9134V52.5075H23.0101Z" fill="black"/>
<path d="M41.8906 52.5072V17.1377H53.5401V52.5072H41.8906Z" fill="black"/>
<path d="M73.3691 57C66.0507 56.6884 61.1719 52.9421 61.1719 44.4275V0H72.5803V43.0217C72.5803 45.913 74.2309 47.471 77.3788 47.7102L73.3691 57Z" fill="black"/>
<path d="M113.584 32.8334L108.472 37.9855H91.0009C91.5488 40.8768 95.4855 44.1522 101.548 44.1522C105.243 44.1522 109.027 43.058 111.386 41.5001L110.283 51.3406C107.61 52.7464 103.512 53.6812 98.9475 53.6812C88.0868 53.6812 79.3516 46.1884 79.3516 34.6304C79.3516 23.2319 87.6924 15.971 97.9249 15.971C107.843 15.971 113.898 22.7609 113.898 30.1015C113.898 30.9566 113.745 32.1304 113.584 32.8334ZM97.9249 24.5507C94.5433 24.5507 91.7095 27.1305 91.0009 30.3261H103.045C103.045 30.0942 103.125 29.8551 103.125 29.5434C103.118 27.1305 100.992 24.5507 97.9249 24.5507Z" fill="black"/>
<path d="M141.835 52.5075V30.8047C141.835 28.2249 140.104 25.9641 136.562 25.9641C133.099 25.9641 130.894 28.1524 130.894 30.964V52.5148H119.324V17.1379H129.952V21.8988H130.032C131.449 18.1524 135.144 16.0438 140.893 16.0438C148.685 16.0438 153.404 20.4133 153.404 27.9134V52.5075H141.835Z" fill="black"/>
<path d="M171.978 53.2898C167.098 53.2898 163.556 52.2753 160.642 50.7898L159.619 40.6376C162.768 42.8261 166.857 44.4637 170.794 44.4637C172.92 44.4637 174.256 43.3696 174.256 42.0434C174.256 40.5579 173.074 39.9347 171.028 39.3115C164.184 37.3622 160.087 33.9202 160.087 27.7535C160.087 20.8043 165.755 16.355 173.467 16.355C177.871 16.355 182.203 17.5289 184.015 18.4637L182.05 26.8985C180.319 25.9637 177.485 24.9492 174.651 24.9492C172.759 24.9492 171.502 25.8116 171.502 27.2101C171.502 28.5362 172.445 29.239 174.651 29.7898C182.677 31.8985 185.987 35.8767 185.987 41.8115C185.978 47.8188 181.574 53.2898 171.978 53.2898Z" fill="black"/>
</g>
<defs>
<clipPath id="clip0_625_155">
<rect width="227" height="57" fill="white" transform="translate(0.5)"/>
</clipPath>
</defs>
</svg>
