<svg width="40" height="40" viewBox="0 0 40 40" fill="none" xmlns="http://www.w3.org/2000/svg">
<rect width="40" height="40" rx="20" fill="black"/>
<path d="M30.4591 14C29.6891 14.35 28.8591 14.58 27.9991 14.69C28.8791 14.16 29.5591 13.32 29.8791 12.31C29.0491 12.81 28.1291 13.16 27.1591 13.36C26.3691 12.5 25.2591 12 23.9991 12C21.6491 12 19.7291 13.92 19.7291 16.29C19.7291 16.63 19.7691 16.96 19.8391 17.27C16.2791 17.09 13.1091 15.38 10.9991 12.79C10.6291 13.42 10.4191 14.16 10.4191 14.94C10.4191 16.43 11.1691 17.75 12.3291 18.5C11.6191 18.5 10.9591 18.3 10.3791 18C10.3791 18 10.3791 18 10.3791 18.03C10.3791 20.11 11.8591 21.85 13.8191 22.24C13.4591 22.34 13.0791 22.39 12.6891 22.39C12.4191 22.39 12.1491 22.36 11.8891 22.31C12.4291 24 13.9991 25.26 15.8891 25.29C14.4291 26.45 12.5791 27.13 10.5591 27.13C10.2191 27.13 9.87906 27.11 9.53906 27.07C11.4391 28.29 13.6991 29 16.1191 29C23.9991 29 28.3291 22.46 28.3291 16.79C28.3291 16.6 28.3291 16.42 28.3191 16.23C29.1591 15.63 29.8791 14.87 30.4591 14Z" fill="white"/>
</svg>
